<svg width="24" height="24" viewBox="0 0 24 24" fill="none" xmlns="http://www.w3.org/2000/svg">
<path d="M12.0576 12.3243C11.6488 11.3747 12.5528 10.3997 14.0778 10.1451C15.6029 9.89052 19.3839 12.8182 20.8041 12.5815C21.5719 12.4542 22.1693 12.1308 22.4995 11.721C22.7798 11.3722 22.9135 11.3773 22.8506 11.777C22.6305 13.1594 21.0688 14.3763 18.7865 14.7556C15.8439 15.2469 12.8175 14.1599 12.0288 12.3294L12.055 12.3243H12.0576Z" stroke="#F2F2F2" stroke-linecap="round" stroke-linejoin="round"/>
<path d="M11.9319 12.3219C12.3407 11.3723 11.4367 10.3972 9.91166 10.1427C8.38665 9.88808 4.60556 12.8158 3.18536 12.579C2.47526 12.4619 1.90928 12.1742 1.56864 11.8076C1.228 11.441 1.07078 11.4308 1.15463 11.856C1.4219 13.2027 2.96526 14.3815 5.20299 14.7531C8.14558 15.2445 11.172 14.1574 11.9607 12.3244L11.9345 12.3193L11.9319 12.3219Z" stroke="#F2F2F2" stroke-linecap="round" stroke-linejoin="round"/>
</svg>
