<svg width="24" height="24" viewBox="0 0 24 24" fill="none" xmlns="http://www.w3.org/2000/svg">
<path d="M6.85669 16.8208L9.69836 19.0208C10.065 19.3874 10.89 19.5708 11.44 19.5708H14.9234C16.0234 19.5708 17.215 18.7458 17.49 17.6458L19.69 10.9541C20.1484 9.67076 19.3234 8.57076 17.9484 8.57076H14.2817C13.7317 8.57076 13.2734 8.11243 13.365 7.47076L13.8234 4.53743C14.0067 3.71243 13.4567 2.79576 12.6317 2.52076C11.8984 2.24576 10.9817 2.61243 10.615 3.16243L6.85669 8.7541" stroke="#F2F2F2" stroke-miterlimit="10"/>
<path d="M2.18176 16.8207V7.83737C2.18176 6.55404 2.73176 6.0957 4.0151 6.0957H4.93176C6.2151 6.0957 6.7651 6.55404 6.7651 7.83737V16.8207C6.7651 18.104 6.2151 18.5624 4.93176 18.5624H4.0151C2.73176 18.5624 2.18176 18.104 2.18176 16.8207Z" stroke="#F2F2F2" stroke-linecap="round" stroke-linejoin="round"/>
</svg>
