<svg width="292" height="58" viewBox="0 0 292 58" fill="none" xmlns="http://www.w3.org/2000/svg">
<path d="M60.792 0.75C68.3736 0.75 75.9192 1.77379 83.4717 2.93262C95.232 4.73705 107.005 5.04463 125.156 5.25H125.184L223.369 2.75L223.368 2.74902C240.858 2.44124 256.524 2.323 268.448 4.93945C274.401 6.24563 279.363 8.22284 283.137 11.1543C286.894 14.0735 289.506 17.9634 290.731 23.1719C293.15 33.448 286.822 41.9058 277.087 47.8945C267.37 53.8721 254.5 57.2115 244.495 57.25H129.199L43.1338 53.751H43.1348C27.9829 52.8805 17.1474 49.4334 10.2334 44.7314C3.33477 40.0398 0.371615 34.1325 0.789062 28.2402C1.20884 22.3168 5.05865 16.202 12.2256 11.168C19.3777 6.1444 29.778 2.24296 43.1318 0.75H60.792Z" stroke="#FABA16" stroke-width="1.5"/>
</svg>
