<svg width="24" height="24" viewBox="0 0 24 24" fill="none" xmlns="http://www.w3.org/2000/svg">
<g clip-path="url(#clip0_20_698)">
<path d="M17.9461 1C13.2909 4.1094 10.4899 12.5307 10.4899 12.5307C11.1527 13.1884 10.7241 15.2464 7.23022 18.7445L7.71369 19.2279C10.3952 16.547 11.696 14.3296 11.4717 12.9094L17.9461 1Z" fill="#F2F2F2"/>
<path d="M12.4536 11.7881L11.8057 12.974C11.8206 13.1086 11.8206 13.2481 11.8156 13.3876C13.4305 12.8046 20.2687 10.1487 23 6.05762L12.4536 11.7881Z" fill="#F2F2F2"/>
<path d="M10.2606 12.7648L10.116 12.6203L10.126 12.5854C8.74539 12.8944 6.90126 14.1501 4.76306 16.2878L5.24652 16.7712C7.63891 14.3793 9.35844 13.4226 10.4151 13.2731C10.4151 13.0489 10.3603 12.8745 10.2506 12.7648H10.2606Z" fill="#F2F2F2"/>
<path d="M10.9085 18.3308C10.435 17.8624 9.76212 17.683 9.05936 17.7877C8.42139 17.8823 7.76348 18.2112 7.2252 18.7494C6.0938 19.8805 5.90938 21.5299 6.80653 22.4318C7.70866 23.3338 9.35841 23.1444 10.4898 22.0083C11.6212 20.8771 11.8056 19.2278 10.9085 18.3308ZM9.96149 21.4801C9.12415 22.3172 7.9479 22.5016 7.33983 21.8987C6.73177 21.2907 6.91618 20.1147 7.7585 19.2726C8.60082 18.4355 9.77209 18.2511 10.3802 18.859C10.9882 19.462 10.8038 20.6429 9.96149 21.4801Z" fill="#F2F2F2"/>
<path d="M5.67019 13.0935C4.76807 12.1916 3.1233 12.381 1.98691 13.5121C0.855515 14.6432 0.671101 16.2926 1.56825 17.1946C2.47038 18.0915 4.12013 17.9071 5.25153 16.776C5.78981 16.2378 6.11378 15.5801 6.20848 14.9422C6.31315 14.2446 6.1387 13.5669 5.67019 13.0935ZM2.09657 16.6614C1.4885 16.0534 1.6779 14.8774 2.51523 14.0403C3.35755 13.1982 4.52883 13.0138 5.13689 13.6217C5.74496 14.2247 5.56054 15.4007 4.71822 16.2428C3.88089 17.0799 2.70463 17.2693 2.09657 16.6614Z" fill="#F2F2F2"/>
</g>
<defs>
<clipPath id="clip0_20_698">
<rect width="22" height="22" fill="white" transform="translate(1 1)"/>
</clipPath>
</defs>
</svg>
