<svg width="24" height="24" viewBox="0 0 24 24" fill="none" xmlns="http://www.w3.org/2000/svg">
<g clip-path="url(#clip0_246_63)">
<path d="M22.4906 15.5924C21.5973 16.0337 19.4058 13.3896 17.5964 9.68674C15.7869 5.9839 15.0423 2.62269 15.9355 2.1814C16.8287 1.74012 19.0202 4.38425 20.8297 8.0871C22.6392 11.7899 23.3838 15.1512 22.4906 15.5924Z" stroke="#F2F2F2" stroke-width="0.5" stroke-miterlimit="10"/>
<path d="M17.9519 9.51074C15.9055 5.32391 15.7339 2.72782 16.1106 2.54099C16.4874 2.35416 18.426 4.07658 20.4724 8.26341C22.5189 12.4502 22.6905 15.0463 22.3137 15.2332C21.937 15.42 19.9984 13.6976 17.9519 9.51074Z" stroke="#F2F2F2" stroke-width="0.5" stroke-miterlimit="10"/>
<path d="M15.9356 2.18164L13.4097 3.43075C12.5165 3.87203 13.2612 7.23324 15.0706 10.9361C16.8801 14.6389 19.0716 17.2831 19.9648 16.8418L22.4906 15.5927" stroke="#F2F2F2" stroke-width="0.5" stroke-miterlimit="10"/>
<path d="M15.5694 2.95361L13.0082 4.22052" stroke="#F2F2F2" stroke-width="0.5" stroke-miterlimit="10"/>
<path d="M15.7657 4.82373L13.2045 6.09063" stroke="#F2F2F2" stroke-width="0.5" stroke-miterlimit="10"/>
<path d="M16.4184 6.8916L13.8572 8.15851" stroke="#F2F2F2" stroke-width="0.5" stroke-miterlimit="10"/>
<path d="M17.3257 9.13525L14.7645 10.4022" stroke="#F2F2F2" stroke-width="0.5" stroke-miterlimit="10"/>
<path d="M18.4065 11.2578L15.8453 12.5247" stroke="#F2F2F2" stroke-width="0.5" stroke-miterlimit="10"/>
<path d="M19.7631 13.3755L17.2019 14.6424" stroke="#F2F2F2" stroke-width="0.5" stroke-miterlimit="10"/>
<path d="M21.1215 14.998L18.5603 16.2649" stroke="#F2F2F2" stroke-width="0.5" stroke-miterlimit="10"/>
<path d="M11.793 14.2383C12.7287 15.3504 13.1461 16.7169 12.8101 18.0301C12.1804 20.4945 9.13631 21.8379 6.01266 21.0301C2.889 20.224 0.867295 17.571 1.49698 15.1048C1.64732 14.5194 1.9321 13.9981 2.323 13.5532" stroke="#F2F2F2" stroke-width="0.5" stroke-miterlimit="10"/>
<path d="M11.5242 14.539C11.5649 14.5888 11.6056 14.6386 11.6445 14.6902C12.421 15.7098 12.6987 16.861 12.4245 17.9322C11.9753 19.6884 10.1304 20.8664 7.83279 20.8664C7.26148 20.8664 6.68309 20.7917 6.11178 20.644C4.68615 20.2756 3.46216 19.4945 2.66267 18.4465C1.88618 17.4269 1.60848 16.2756 1.88264 15.2045C2.00999 14.708 2.24701 14.2596 2.576 13.8682" stroke="#F2F2F2" stroke-width="0.5" stroke-miterlimit="10"/>
<path d="M1.38558 15.8608L1.24762 17.6011C1.23524 19.7825 3.13136 21.9213 5.87827 22.6313C8.61102 23.3377 11.2836 22.3982 12.3308 20.5014C12.5607 20.085 12.6774 19.6171 12.727 19.1438L12.8915 17.61" stroke="#F2F2F2" stroke-width="0.5" stroke-miterlimit="10"/>
<path d="M9.26551 18.3985L8.94713 17.9857C9.11694 17.733 9.20007 17.4554 9.19476 17.1494C9.18946 16.8433 9.0851 16.5569 8.87992 16.2917C8.86577 16.2722 8.84985 16.2579 8.83393 16.2384C8.54739 16.2633 8.25024 16.233 7.96723 16.217C7.56219 16.1939 7.16244 16.1245 6.7627 16.0604C6.15247 15.9626 5.51925 15.8754 4.94971 15.6191C4.99039 15.8291 5.07883 16.0284 5.2221 16.2152C5.40605 16.4537 5.62007 16.6298 5.8677 16.7437C6.11533 16.8576 6.39479 16.8896 6.7061 16.8416C6.86352 16.8149 7.03509 16.7864 7.21904 16.7562C7.403 16.7259 7.53919 16.7045 7.6294 16.6957C7.88941 16.6583 8.07513 16.7117 8.18656 16.8558C8.27323 16.9679 8.31038 17.1013 8.29976 17.2562C8.28915 17.411 8.22194 17.5355 8.10166 17.628C7.98492 17.7188 7.84873 17.7508 7.69307 17.7277C7.53742 17.7028 7.41184 17.6316 7.31809 17.5088L7.11292 17.2419C7.09877 17.2241 7.08462 17.2188 7.07047 17.2295L6.43725 17.7223C6.41779 17.7366 6.41602 17.7526 6.43017 17.7722L6.63535 18.0391C6.83345 18.2953 7.08462 18.4679 7.39238 18.5533C7.70015 18.6387 7.99553 18.6263 8.28208 18.5159L8.59515 18.9216C8.6093 18.9412 8.62522 18.943 8.64467 18.9287L9.25136 18.4572C9.27436 18.4394 9.27966 18.4216 9.26375 18.4021L9.26551 18.3985Z" fill="#F2F2F2"/>
<path d="M7.52673 21.2598V22.8665" stroke="#F2F2F2" stroke-width="0.5" stroke-miterlimit="10"/>
<path d="M5.9366 21.0781L5.78979 22.6778" stroke="#F2F2F2" stroke-width="0.5" stroke-miterlimit="10"/>
<path d="M4.7286 20.5586L4.58179 22.1582" stroke="#F2F2F2" stroke-width="0.5" stroke-miterlimit="10"/>
<path d="M3.44094 19.7935L3.2959 21.3913" stroke="#F2F2F2" stroke-width="0.5" stroke-miterlimit="10"/>
<path d="M2.46804 18.8506L2.323 20.4502" stroke="#F2F2F2" stroke-width="0.5" stroke-miterlimit="10"/>
<path d="M1.7004 17.5659L1.55359 19.1656" stroke="#F2F2F2" stroke-width="0.5" stroke-miterlimit="10"/>
<path d="M8.89575 21.1709V22.7759" stroke="#F2F2F2" stroke-width="0.5" stroke-miterlimit="10"/>
<path d="M10.4187 20.749V22.3558" stroke="#F2F2F2" stroke-width="0.5" stroke-miterlimit="10"/>
<path d="M11.6746 19.8809V21.4876" stroke="#F2F2F2" stroke-width="0.5" stroke-miterlimit="10"/>
<path d="M12.2546 12.8512C13.5599 10.6709 12.3782 7.54624 9.61502 5.87207C6.85187 4.1979 3.55369 4.60821 2.24833 6.78852C0.942969 8.96884 2.12474 12.0935 4.88789 13.7677C7.65104 15.4418 10.9492 15.0315 12.2546 12.8512Z" stroke="#F2F2F2" stroke-width="0.5" stroke-miterlimit="10"/>
<path d="M6.6795 14.1321C6.13118 13.9666 5.59878 13.7281 5.09468 13.4239C3.83355 12.6605 2.88195 11.5591 2.41499 10.3242C1.96042 9.12316 2.02232 7.93989 2.5901 6.99327C3.5187 5.43989 5.62355 4.84202 7.82567 5.50394C8.37399 5.66942 8.90639 5.90786 9.41049 6.21213C10.6716 6.97547 11.6232 8.0769 12.0902 9.31177C12.5448 10.5128 12.4828 11.6961 11.9151 12.6427C10.9865 14.1961 8.88163 14.794 6.6795 14.1321Z" stroke="#F2F2F2" stroke-width="0.5" stroke-miterlimit="10"/>
<path d="M1.92683 7.479L1.29891 9.10712C0.667462 11.1943 1.87377 13.7886 4.30406 15.2601C6.72197 16.7246 9.54847 16.5929 11.0926 15.0769C11.4304 14.7441 11.6763 14.3295 11.8585 13.89L12.4528 12.4683" stroke="#F2F2F2" stroke-width="0.5" stroke-miterlimit="10"/>
<path d="M8.01146 12.5076C7.99023 12.5165 7.97431 12.5094 7.96547 12.488L7.78152 12.0094C7.47552 12.0325 7.18898 11.9595 6.91835 11.7887C6.64773 11.6179 6.45494 11.3812 6.3382 11.0788L6.21792 10.7638C6.20908 10.7425 6.21615 10.7264 6.23738 10.7175L6.98557 10.4275C7.00149 10.4204 7.01387 10.4275 7.02271 10.4506L7.14299 10.7656C7.19782 10.9097 7.29687 11.0147 7.44014 11.0823C7.58341 11.1499 7.72315 11.1588 7.85934 11.1054C8.00084 11.0503 8.0999 10.9506 8.15473 10.8047C8.20956 10.6606 8.21133 10.5218 8.16003 10.3901C8.09459 10.2193 7.93186 10.1143 7.67185 10.077C7.58341 10.061 7.44722 10.0414 7.2615 10.0183C7.07578 9.99513 6.9042 9.97378 6.74501 9.95242C6.43194 9.90972 6.1737 9.79762 5.97029 9.6179C5.76511 9.43819 5.60946 9.20687 5.50157 8.92573C5.38306 8.6179 5.36891 8.31363 5.45912 8.01648C5.54932 7.71933 5.71205 7.47555 5.94907 7.28872L5.76511 6.81007C5.75627 6.78872 5.76335 6.77271 5.78457 6.76381L6.49916 6.48623C6.52569 6.47555 6.54514 6.48089 6.55222 6.50402L6.73971 6.99157C7.03509 6.972 7.31279 7.04495 7.57457 7.20865C7.83635 7.37235 8.02384 7.60367 8.13704 7.90082L8.34929 8.4542C8.35637 8.47022 8.34929 8.48267 8.33337 8.48801L7.57811 8.7816C7.56219 8.78872 7.54981 8.7816 7.5445 8.76559L7.3234 8.21399C7.2615 8.05385 7.16245 7.94531 7.02448 7.88837C6.88652 7.83143 6.75209 7.82787 6.61943 7.87947C6.48324 7.93285 6.38595 8.03072 6.33112 8.17128C6.27452 8.31363 6.27452 8.45598 6.33112 8.59833C6.38419 8.73534 6.45847 8.8421 6.55576 8.91506C6.65304 8.98801 6.79985 9.04139 6.99441 9.07342L7.8222 9.18908C8.09282 9.22289 8.32807 9.30652 8.52617 9.43819C8.72427 9.56986 8.87639 9.77449 8.98251 10.0485C9.10279 10.3635 9.12225 10.6677 9.04088 10.9613C8.95952 11.2567 8.80033 11.5005 8.56508 11.6926L8.75257 12.1802C8.76142 12.2015 8.75257 12.2193 8.72427 12.23L8.00969 12.5076H8.01146Z" fill="#F2F2F2"/>
<path d="M6.27452 14.4219L5.81641 15.9592" stroke="#F2F2F2" stroke-width="0.5" stroke-miterlimit="10"/>
<path d="M4.8011 13.7886L4.20679 15.2797" stroke="#F2F2F2" stroke-width="0.5" stroke-miterlimit="10"/>
<path d="M3.79285 12.9434L3.19678 14.4327" stroke="#F2F2F2" stroke-width="0.5" stroke-miterlimit="10"/>
<path d="M2.7776 11.8384L2.18152 13.3295" stroke="#F2F2F2" stroke-width="0.5" stroke-miterlimit="10"/>
<path d="M2.11439 10.6567L1.51831 12.1461" stroke="#F2F2F2" stroke-width="0.5" stroke-miterlimit="10"/>
<path d="M1.74287 9.20508L1.14856 10.6944" stroke="#F2F2F2" stroke-width="0.5" stroke-miterlimit="10"/>
<path d="M7.61174 14.73L7.1554 16.2691" stroke="#F2F2F2" stroke-width="0.5" stroke-miterlimit="10"/>
<path d="M9.19114 14.7651L8.73303 16.3043" stroke="#F2F2F2" stroke-width="0.5" stroke-miterlimit="10"/>
<path d="M10.6416 14.2954L10.1853 15.8346" stroke="#F2F2F2" stroke-width="0.5" stroke-miterlimit="10"/>
</g>
<defs>
<clipPath id="clip0_246_63">
<rect width="22" height="21" fill="white" transform="translate(1 2)"/>
</clipPath>
</defs>
</svg>
