<svg width="17" height="16" viewBox="0 0 17 16" fill="none" xmlns="http://www.w3.org/2000/svg">
<path d="M14.6111 9.83336V6.16669C14.6111 3.11114 13.3889 1.88892 10.3334 1.88892H6.66669C3.61114 1.88892 2.38892 3.11114 2.38892 6.16669V9.83336C2.38892 12.8889 3.61114 14.1111 6.66669 14.1111H10.3334C13.3889 14.1111 14.6111 12.8889 14.6111 9.83336Z" stroke="white" stroke-opacity="0.5" stroke-linecap="round" stroke-linejoin="round"/>
<path d="M2.70667 5.01172H14.2933" stroke="white" stroke-opacity="0.5" stroke-linecap="round" stroke-linejoin="round"/>
<path d="M6.37329 1.95605V4.92605" stroke="white" stroke-opacity="0.5" stroke-linecap="round" stroke-linejoin="round"/>
<path d="M10.6267 1.95605V4.65105" stroke="white" stroke-opacity="0.5" stroke-linecap="round" stroke-linejoin="round"/>
<path d="M7.125 9.49724V8.76391C7.125 7.82279 7.79111 7.43779 8.60389 7.90835L9.23944 8.27502L9.875 8.64168C10.6878 9.11224 10.6878 9.88224 9.875 10.3528L9.23944 10.7195L8.60389 11.0861C7.79111 11.5567 7.125 11.1717 7.125 10.2306V9.49724V9.49724Z" stroke="white" stroke-opacity="0.5" stroke-miterlimit="10" stroke-linecap="round" stroke-linejoin="round"/>
</svg>
